<?xml version="1.0" standalone="no"?>
<!DOCTYPE svg PUBLIC "-//W3C//DTD SVG 20010904//EN"
 "http://www.w3.org/TR/2001/REC-SVG-20010904/DTD/svg10.dtd">
<svg version="1.0" xmlns="http://www.w3.org/2000/svg"
 width="300.000000pt" height="300.000000pt" viewBox="0 0 300.000000 3c:\Users\PC\Downloads\w (1).png00.000000"
 preserveAspectRatio="xMidYMid meet">

<g transform="translate(0.000000,500.000000) scale(0.100000,-0.100000)"
fill="#000000" stroke="none">
<path d="M1994 3601 c3 -4 24 -11 47 -14 51 -7 86 -31 110 -77 16 -28 19 -58
20 -165 l1 -130 25 73 c14 40 30 71 35 70 6 -2 27 -49 47 -103 l36 -100 3 194
2 194 77 -6 c142 -11 247 -87 270 -196 12 -56 9 -171 -6 -224 -26 -91 -120
-170 -216 -184 -25 -3 -45 -9 -45 -13 0 -4 35 -11 78 -15 110 -10 215 -39 290
-81 35 -19 65 -34 67 -32 1 2 8 25 15 51 16 58 15 58 -80 83 -100 25 -97 23
-64 43 47 29 102 99 121 155 26 77 23 197 -6 264 -27 61 -107 138 -175 171
-92 43 -156 51 -414 51 -134 0 -241 -4 -238 -9z"/>
<path d="M2187 2977 c-15 -47 -17 -106 -17 -450 0 -219 -4 -397 -8 -397 -20 0
-101 61 -144 109 l-48 53 -10 -27 c-16 -43 -12 -54 43 -109 109 -108 233 -154
445 -163 72 -3 132 -3 132 -1 0 3 -7 22 -15 42 -15 35 -17 36 -69 36 -29 0
-81 3 -115 6 l-61 7 0 318 0 317 -50 142 c-27 78 -54 148 -58 156 -6 10 -13
-1 -25 -39z"/>
<path d="M2937 2757 l-25 -74 20 -59 c29 -86 22 -227 -14 -306 -38 -82 -72
-122 -142 -169 -52 -35 -63 -48 -78 -91 l-17 -49 32 6 c51 11 146 52 197 85
70 45 137 121 173 198 30 64 32 73 32 188 0 118 -1 121 -37 195 -20 40 -55 91
-76 112 l-40 39 -25 -75z"/>
<path d="M1871 2599 c-54 -22 -67 -79 -27 -126 13 -15 27 -47 31 -70 4 -24 10
-45 15 -48 8 -5 26 61 21 79 -1 5 2 12 7 15 11 7 42 98 42 122 0 10 -13 21
-31 28 -18 6 -32 11 -33 10 -1 0 -12 -5 -25 -10z"/>
</g>
</svg>
