 <svg  version="1.0" xmlns="http://www.w3.org/2000/svg"  width="300.000000pt" height="300.000000pt" viewBox="0 0 300.000000 300.000000"  preserveAspectRatio="xMidYMid meet">  <g transform="translate(0.000000,300.000000) scale(0.100000,-0.100000)" fill="#fffafa" stroke="none"> <path d="M1292 2550 c-126 -33 -232 -93 -335 -189 -49 -46 -137 -169 -137 -192 0 -25 -17 6 -43 79 -15 40 -27 86 -27 103 l0 29 -66 0 -66 0 25 -30 c14 -16 48 -89 76 -160 l51 -131 -17 -52 c-16 -47 -18 -119 -21 -817 l-3 -765 751 0 751 0 -3 775 -3 775 -27 80 c-83 242 -283 432 -524 495 -104 27 -278 27 -382 0z m410 -48 c106 -39 188 -86 257 -149 117 -107 185 -217 222 -360 18 -72 19 -116 19 -802 l0 -726 -720 0 -720 0 0 709 c0 677 6 836 30 836 4 0 11 -12 15 -27 3 -16 49 -138 102 -273 52 -135 100 -256 105 -270 10 -27 15 -16 165 370 42 107 79 198 82 202 3 4 58 -125 121 -287 62 -162 117 -295 120 -295 3 0 43 95 89 211 l85 211 58 -4 c32 -2 62 -9 68 -14 5 -5 -4 -24 -26 -48 -46 -52 -43 -56 10 -12 33 27 47 33 53 24 4 -7 10 -53 13 -103 l6 -90 7 80 c5 44 12 90 18 103 l9 23 47 -38 48 -38 -38 47 c-37 45 -37 47 -18 57 11 6 54 11 97 11 43 0 75 2 73 4 -2 3 -44 9 -92 14 -49 5 -91 12 -94 15 -3 3 12 26 32 51 45 55 41 58 -11 11 -35 -31 -40 -33 -51 -18 -7 9 -13 37 -14 62 0 25 -4 64 -8 86 -8 35 -9 31 -10 -37 0 -42 -6 -89 -11 -103 l-10 -27 -48 38 -47 39 33 -41 c48 -62 48 -62 -66 -78 -29 -4 -35 -25 73 249 47 121 96 230 107 243 l21 22 -31 0 c-27 0 -32 -4 -32 -25 0 -14 -54 -164 -121 -333 -66 -169 -134 -344 -151 -390 -17 -46 -34 -79 -38 -75 -17 19 -303 768 -303 794 0 29 0 29 -65 29 l-64 0 24 -28 c13 -16 48 -90 77 -165 l53 -137 -91 -233 c-50 -127 -94 -242 -99 -255 -6 -19 -29 31 -122 268 l-114 292 23 42 c89 162 262 298 443 346 101 28 325 23 410 -8z m178 -627 c10 -12 10 -18 0 -30 -17 -21 -37 -19 -45 5 -12 37 20 55 45 25z"/> <path d="M1331 1398 c13 -25 12 -804 -2 -830 -11 -20 -9 -20 208 -16 210 3 220 4 273 29 124 58 179 168 151 300 -21 99 -86 161 -191 184 l-35 8 39 14 c79 27 110 77 104 166 -4 53 -8 63 -40 93 -50 45 -92 56 -243 60 -71 2 -162 5 -202 7 -64 2 -70 1 -62 -15z m341 -22 c74 -17 106 -39 125 -84 27 -66 -6 -164 -64 -192 -16 -7 -80 -16 -144 -20 -64 -4 -126 -13 -137 -19 -11 -6 -24 -11 -29 -11 -4 0 -7 76 -5 170 l3 170 97 0 c53 0 123 -6 154 -14z m108 -352 c74 -42 110 -107 110 -200 0 -103 -39 -172 -125 -217 -34 -18 -61 -22 -192 -25 l-153 -4 0 226 c0 124 1 226 3 226 1 0 20 7 42 15 29 11 71 14 150 13 102 -3 114 -5 165 -34z"/> </g> </svg> 