<?xml version="1.0" standalone="no"?>
<!DOCTYPE svg PUBLIC "-//W3C//DTD SVG 20010904//EN"
 "http://www.w3.org/TR/2001/REC-SVG-20010904/DTD/svg10.dtd">
<svg version="1.0" xmlns="http://www.w3.org/2000/svg"
 width="300.000000pt" height="300.000000pt" viewBox="0 0 300.000000 300.000000"
 preserveAspectRatio="xMidYMid meet">
<metadata>
Created by potrace 1.10, written by Peter Selinger 2001-2011
</metadata>
<g transform="translate(0.000000,300.000000) scale(0.100000,-0.100000)"
fill="#000000" stroke="none">
<path d="M1705 2619 c-109 -23 -143 -32 -180 -48 -22 -10 -52 -21 -67 -25 -15
-3 -34 -13 -42 -22 -9 -8 -16 -12 -16 -8 0 5 -18 -9 -40 -31 -47 -45 -46 -58
2 -22 114 87 309 147 483 150 130 2 188 -12 243 -59 53 -45 66 -80 59 -157
-11 -125 -122 -297 -329 -513 -54 -56 -98 -104 -98 -108 0 -10 83 -7 100 4 12
8 9 10 -12 10 -21 0 -25 4 -21 21 3 11 16 27 29 36 13 8 21 19 18 24 -3 5 1 9
8 9 7 0 24 16 37 35 13 19 27 32 31 30 5 -3 11 3 14 13 4 10 21 34 39 54 53
58 77 88 77 93 0 7 33 59 41 65 16 12 69 143 80 199 17 78 2 139 -46 192 -18
20 -35 36 -37 33 -2 -2 -28 5 -56 16 -42 16 -75 20 -165 19 -61 -1 -130 -5
-152 -10z"/>
<path d="M1685 2536 c-125 -33 -217 -72 -262 -111 -36 -31 -37 -33 -11 -28 14
3 35 13 45 22 10 9 25 20 33 24 8 4 22 11 30 15 40 23 61 31 115 43 33 7 62
16 65 19 10 13 171 32 212 26 89 -14 140 -72 131 -145 -10 -71 -73 -196 -132
-262 -27 -30 -41 -48 -41 -53 0 -2 -31 -37 -70 -77 -38 -39 -70 -76 -70 -81 0
-5 -4 -7 -9 -3 -5 3 -13 0 -18 -7 -4 -7 -13 54 -20 140 -13 170 -24 202 -71
202 -59 0 -57 8 -54 -317 3 -361 -11 -756 -27 -761 -6 -2 -11 -10 -11 -17 0
-7 -21 -18 -47 -26 -31 -8 -41 -14 -28 -16 11 -2 40 2 65 10 l45 13 6 99 c13
190 20 810 12 894 -7 67 -6 86 5 97 18 18 46 18 61 0 15 -18 30 -167 31 -293
0 -51 4 -93 9 -93 14 0 181 187 252 282 85 114 122 196 127 278 3 56 1 69 -19
94 -12 16 -37 35 -55 42 -52 22 -194 17 -299 -10z"/>
<path d="M995 2416 c-386 -103 -802 -446 -928 -764 -39 -99 -48 -231 -22 -315
34 -110 158 -224 300 -277 80 -29 215 -39 234 -17 19 24 5 37 -39 37 -147 0
-318 98 -384 220 -67 123 -35 298 87 480 235 349 733 651 974 591 67 -17 111
-54 141 -119 21 -46 26 -75 30 -172 5 -133 -3 -243 -58 -740 -21 -195 -44
-422 -51 -505 -13 -168 -7 -432 12 -485 31 -89 104 -137 169 -110 68 28 128
131 203 345 56 162 85 275 138 530 23 110 47 224 53 254 24 113 33 69 39 -186
10 -403 33 -509 112 -529 54 -13 105 38 146 144 57 153 163 661 244 1172 19
120 21 147 10 159 -17 17 -60 7 -69 -15 -8 -22 -53 -247 -120 -615 -68 -364
-85 -445 -126 -584 -34 -117 -46 -145 -59 -145 -22 0 -39 214 -51 633 -5 197
-14 345 -20 357 -27 50 -97 45 -119 -8 -6 -15 -38 -155 -70 -312 -126 -603
-156 -723 -238 -930 -44 -112 -87 -190 -109 -197 -29 -10 -54 123 -54 292 0
139 20 364 72 825 35 306 42 398 42 570 1 190 -1 209 -21 260 -29 70 -80 125
-141 153 -73 33 -211 34 -327 3z m365 -71 c19 -10 40 -37 62 -82 l33 -68 -1
-185 c0 -159 -6 -239 -29 -440 -3 -19 -14 -116 -25 -215 -11 -99 -24 -207 -29
-240 -5 -33 -9 -71 -9 -85 0 -14 -5 -86 -11 -159 -15 -190 -14 -456 3 -504 33
-92 80 -100 137 -24 20 27 41 63 47 80 6 18 33 95 60 172 27 77 62 192 77 255
15 63 38 157 51 208 13 52 24 103 24 115 0 11 4 34 10 51 5 17 28 128 51 246
52 266 68 310 103 281 23 -19 26 -63 36 -404 14 -489 27 -584 83 -595 25 -5
56 38 77 108 41 138 90 349 110 465 11 70 29 168 55 300 7 39 28 146 45 239
32 170 48 233 49 191 1 -27 -37 -264 -55 -345 -8 -36 -17 -76 -20 -90 -3 -14
-7 -43 -9 -65 -4 -51 -31 -203 -50 -280 -8 -33 -21 -98 -30 -145 -24 -129 -93
-348 -123 -394 -21 -31 -35 -42 -59 -44 -27 -3 -34 2 -48 28 -22 43 -42 221
-50 445 -8 255 -20 304 -66 274 -16 -11 -29 -43 -51 -129 -15 -63 -33 -140
-38 -170 -5 -30 -14 -77 -20 -105 -6 -27 -13 -63 -16 -80 -28 -161 -121 -433
-206 -603 -43 -85 -123 -109 -172 -51 -14 17 -28 40 -30 52 -31 162 -34 311
-11 512 9 72 20 184 25 250 5 66 14 156 19 200 40 308 55 494 55 685 1 201 1
206 -25 260 -15 30 -36 65 -48 78 -25 26 -21 28 19 7z m-740 -142 c0 -5 -22
-23 -48 -41 -109 -75 -226 -192 -327 -327 -62 -83 -131 -221 -145 -291 -19
-91 -9 -190 26 -255 16 -30 32 -56 37 -57 4 -2 12 -13 18 -25 10 -21 10 -21
-5 -3 -9 11 -16 16 -16 12 0 -21 -68 81 -85 126 -25 69 -16 197 19 292 64 170
205 341 401 487 44 33 87 66 95 74 17 15 30 19 30 8z"/>
<path d="M2030 1779 c36 -6 98 -19 139 -28 56 -14 70 -15 56 -4 -31 22 -85 34
-175 38 l-85 4 65 -10z"/>
<path d="M1710 1711 l-45 -6 -6 -150 c-4 -82 -10 -203 -14 -267 l-7 -118 27 0
c27 0 27 1 11 19 -16 18 -17 35 -5 243 6 122 16 225 20 226 5 2 9 10 9 17 0
13 30 25 67 25 12 0 25 5 28 10 7 11 -11 11 -85 1z"/>
<path d="M2010 1711 c8 -6 27 -11 43 -11 15 0 59 -11 97 -24 76 -27 86 -16 14
14 -49 21 -179 39 -154 21z"/>
<path d="M2384 1615 c41 -53 78 -141 96 -225 l16 -75 36 -3 c21 -2 69 8 110
22 41 14 80 26 86 26 20 0 13 -28 -12 -47 -19 -15 -147 -63 -213 -79 -7 -2
-13 -16 -13 -31 0 -48 -38 -190 -70 -259 -114 -253 -400 -467 -714 -535 -50
-11 -92 -22 -95 -25 -19 -19 211 26 258 50 14 8 66 33 116 56 49 24 98 51 109
61 11 11 25 19 32 19 7 0 20 10 28 22 9 12 16 19 16 16 0 -4 13 5 29 20 16 15
43 39 60 54 17 15 31 30 31 34 0 10 28 34 40 34 6 0 9 4 6 9 -3 5 5 20 19 35
13 14 21 26 17 26 -4 0 2 7 12 15 11 8 16 15 10 15 -5 0 -4 4 2 8 19 12 83
185 99 268 8 43 15 80 15 80 0 1 26 12 58 24 145 56 182 78 182 110 0 35 -28
39 -102 14 -73 -25 -123 -30 -133 -14 -3 5 -14 43 -25 84 -22 89 -63 173 -98
204 -36 32 -38 27 -8 -13z"/>
<path d="M2340 1512 c0 -4 5 -23 10 -42 35 -118 31 -180 -12 -180 -13 0 -30
-5 -38 -10 -21 -14 40 -13 75 0 26 10 27 12 20 63 -9 71 -55 213 -55 169z"/>
<path d="M2043 1249 c-18 -5 -33 -12 -33 -16 0 -7 94 5 123 17 18 7 16 9 -18
8 -22 0 -55 -4 -72 -9z"/>
<path d="M2310 1210 l-35 -7 32 -2 c51 -2 63 -10 63 -43 0 -73 -93 -297 -120
-290 -7 1 -10 -3 -8 -10 2 -6 -1 -19 -8 -28 -7 -8 -36 -44 -65 -80 l-52 -65
65 63 c102 99 185 258 203 388 4 27 9 57 12 67 5 19 -21 21 -87 7z"/>
<path d="M2035 1170 c-16 -4 -23 -9 -15 -10 25 -4 72 1 94 10 17 7 15 9 -14 8
-19 0 -48 -4 -65 -8z"/>
<path d="M1642 1098 c-7 -7 -12 -25 -12 -40 0 -48 -75 -53 -82 -6 -3 20 -8 23
-38 20 -19 -2 -48 -10 -65 -17 -28 -13 -27 -13 27 -8 48 5 59 3 64 -11 19 -50
97 -34 110 22 4 15 14 32 23 39 14 11 14 12 1 13 -9 0 -21 -5 -28 -12z"/>
<path d="M1225 1073 c-32 -7 -189 -67 -195 -74 -3 -3 -20 -12 -37 -20 -18 -8
-33 -17 -33 -20 0 -4 -13 -12 -28 -18 -31 -13 -94 -90 -111 -134 -23 -59 -8
-176 24 -199 5 -4 6 -8 1 -8 -30 0 99 -103 161 -129 18 -7 30 -18 27 -23 -4
-6 2 -8 15 -3 11 3 21 2 21 -3 0 -15 175 -60 187 -48 7 6 2 8 -82 31 -152 42
-304 148 -340 237 -56 141 73 278 359 384 79 29 94 42 31 27z"/>
<path d="M1225 991 c-138 -49 -266 -136 -301 -202 -32 -64 1 -152 80 -212 43
-34 166 -92 215 -102 49 -10 31 10 -24 26 -25 7 -45 16 -45 20 0 4 -14 9 -31
13 -20 4 -28 10 -23 17 4 7 3 9 -4 6 -17 -11 -115 77 -140 126 -23 46 -22 97
1 97 6 0 8 3 4 6 -5 5 10 20 83 84 25 22 85 56 168 95 39 19 72 37 72 40 0 3
-1 5 -2 4 -2 0 -25 -8 -53 -18z"/>
<path d="M2000 618 c-25 -11 -46 -25 -48 -29 -2 -5 -9 -9 -17 -9 -7 0 -18 -7
-26 -16 -7 -8 -21 -13 -31 -11 -10 3 -16 2 -13 -3 4 -7 -53 -30 -185 -74 -60
-19 -24 -20 54 0 71 18 247 101 291 138 36 30 34 30 -25 4z"/>
<path d="M1405 450 c-4 -6 11 -10 37 -10 31 0 39 3 28 10 -20 13 -57 13 -65 0z"/>
</g>
</svg>
