<svg xmlns="http://www.w3.org/2000/svg" xmlns:xlink="http://www.w3.org/1999/xlink" width="500" zoomAndPan="magnify" viewBox="0 0 375 374.999991" height="500" preserveAspectRatio="xMidYMid meet" version="1.0"><defs><clipPath id="f9acabc454"><path d="M 22.144531 105.496094 L 254 105.496094 L 254 269.746094 L 22.144531 269.746094 Z M 22.144531 105.496094 " clip-rule="nonzero"/></clipPath><clipPath id="4310fccf3a"><path d="M 248 105.496094 L 329.644531 105.496094 L 329.644531 269.746094 L 248 269.746094 Z M 248 105.496094 " clip-rule="nonzero"/></clipPath></defs><rect x="-37.5" width="450" fill="#ffffff" y="-37.499999" height="449.999989" fill-opacity="1"/><rect x="-37.5" width="450" fill="#ffffff" y="-37.499999" height="449.999989" fill-opacity="1"/><g clip-path="url(#f9acabc454)"><path fill="#ffffff" d="M 22.144531 105.625 L 67.242188 105.625 L 128.105469 224.902344 L 105.558594 269.371094 Z M 103.859375 105.941406 L 148.957031 105.941406 L 209.066406 224.964844 L 186.644531 269.433594 Z M 253.664062 131.441406 C 253.664062 134.894531 252.972656 138.160156 251.652344 141.238281 C 250.332031 144.253906 248.511719 146.953125 246.25 149.277344 C 243.988281 151.601562 241.289062 153.363281 238.210938 154.679688 C 235.132812 156 231.867188 156.628906 228.351562 156.628906 C 224.894531 156.628906 221.566406 156 218.488281 154.679688 C 215.410156 153.363281 212.710938 151.601562 210.449219 149.277344 C 208.1875 146.953125 206.367188 144.316406 205.046875 141.238281 C 203.726562 138.222656 203.039062 134.957031 203.039062 131.441406 C 203.039062 127.988281 203.726562 124.65625 205.046875 121.578125 C 206.367188 118.503906 208.1875 115.800781 210.449219 113.539062 C 212.710938 111.277344 215.410156 109.457031 218.488281 108.136719 C 221.566406 106.820312 224.832031 106.128906 228.351562 106.128906 C 231.804688 106.128906 235.132812 106.820312 238.210938 108.136719 C 241.289062 109.457031 243.988281 111.277344 246.25 113.539062 C 248.511719 115.800781 250.332031 118.503906 251.652344 121.578125 C 252.972656 124.71875 253.664062 127.988281 253.664062 131.441406 Z M 253.664062 131.441406 " fill-opacity="1" fill-rule="nonzero"/></g><g clip-path="url(#4310fccf3a)"><path fill="#fdcc49" d="M 290.46875 222.578125 C 291.160156 216.484375 291.097656 210.832031 290.34375 205.554688 C 289.589844 200.28125 288.269531 195.632812 286.574219 191.613281 C 284.816406 187.59375 282.742188 184.203125 280.230469 181.4375 C 277.78125 178.675781 275.144531 176.851562 272.503906 175.910156 C 279.226562 175.910156 285.882812 177.039062 292.667969 179.238281 C 299.386719 181.4375 305.480469 184.578125 310.945312 188.597656 C 316.347656 192.617188 320.804688 197.578125 324.261719 203.359375 C 327.714844 209.136719 329.410156 215.542969 329.410156 222.578125 C 329.410156 228.042969 328.34375 233.128906 326.207031 237.902344 C 324.070312 242.613281 321.121094 246.949219 317.414062 250.71875 C 313.707031 254.546875 309.25 257.8125 304.097656 260.578125 C 298.949219 263.339844 293.421875 265.414062 287.453125 266.921875 C 281.488281 268.429688 275.207031 269.183594 268.546875 269.308594 C 261.890625 269.433594 255.234375 268.742188 248.511719 267.171875 C 251.902344 266.984375 255.859375 265.917969 260.320312 263.90625 C 264.78125 261.898438 269.113281 259.070312 273.257812 255.300781 C 277.40625 251.597656 281.109375 246.949219 284.3125 241.484375 C 287.515625 236.019531 289.589844 229.675781 290.46875 222.578125 Z M 290.46875 140.738281 C 290.46875 136.277344 290.027344 132.132812 289.148438 128.238281 C 288.269531 124.34375 287.078125 120.824219 285.507812 117.6875 C 283.9375 114.546875 282.050781 111.96875 279.855469 109.835938 C 277.65625 107.761719 275.207031 106.316406 272.503906 105.5625 C 279.226562 105.5625 285.882812 106.378906 292.667969 108.074219 C 299.386719 109.773438 305.480469 112.160156 310.945312 115.171875 C 316.347656 118.1875 320.804688 121.894531 324.261719 126.226562 C 327.714844 130.5625 329.410156 135.398438 329.410156 140.675781 C 329.410156 145.949219 327.714844 150.785156 324.261719 155.121094 C 320.804688 159.453125 316.410156 163.160156 310.945312 166.175781 C 305.542969 169.191406 299.449219 171.578125 292.667969 173.273438 C 285.945312 174.96875 279.226562 175.785156 272.503906 175.785156 C 274.765625 175.03125 276.964844 173.585938 279.164062 171.515625 C 281.363281 169.441406 283.246094 166.804688 284.941406 163.664062 C 286.636719 160.523438 287.957031 157.003906 288.960938 153.109375 C 289.964844 149.34375 290.46875 145.132812 290.46875 140.738281 Z M 290.46875 140.738281 " fill-opacity="1" fill-rule="nonzero"/></g></svg>